<?xml version="1.0" encoding="UTF-8"?>
<svg id="_레이어_1" data-name="레이어_1" xmlns="http://www.w3.org/2000/svg" version="1.1" viewBox="0 0 539.97 243.33">
  <!-- Generator: Adobe Illustrator 29.5.1, SVG Export Plug-In . SVG Version: 2.1.0 Build 141)  -->
  <defs>
    <style>
      .st0 {
        fill: #fff;
      }

      .st1 {
        fill: #ff0074;
      }
    </style>
  </defs>
  <g>
    <g>
      <path class="st0" d="M46.68,113.86c0-26.48,20.71-54.15,55.59-54.15,9.18,0,16.78,1.83,23.07,5.38h.39l7.87-2.75h3.93c-1.31,11.67-2.62,23.86-3.67,35h-7.47c-.66-20.98-8-28.71-22.16-28.71-21.5,0-33.3,19.27-33.3,45.89,0,21.5,8.52,32.78,24.12,32.78,4.59,0,8.65-1.18,12.59-3.28l3.15-13.37c1.97-8.26.26-11.41-6.56-12.06l-7.87-.52,1.7-7.21c1.31,0,11.54.13,27.53.13,10.09,0,17.04-.13,18.22-.13l-1.7,7.21-1.83.39c-6.42,1.44-8.92,3.93-10.75,11.67l-4.33,18.62-.26.26c-10.36,4.85-20.85,7.21-31.33,7.21-28.71,0-46.94-16.78-46.94-42.35Z"/>
      <path class="st0" d="M93.62,176.21c-39.41,0-66.94-25.64-66.94-62.35,0-18.5,7.32-36.96,20.09-50.65,14.13-15.15,33.84-23.5,55.5-23.5,8.77,0,16.85,1.33,24.13,3.95l.59-.21c2.12-.74,4.36-1.12,6.61-1.12h3.93c5.69,0,11.12,2.43,14.91,6.67,3.79,4.24,5.6,9.9,4.96,15.56-1.26,11.25-2.29,20.88-3.11,29.23,1.97,1.21,3.74,2.77,5.21,4.63,3.79,4.79,5.19,11.06,3.78,17.01l-1.7,7.21c-1.6,6.79-6.61,12.19-13.12,14.37l-3.77,16.24c-.84,3.63-2.69,6.96-5.33,9.6l-.26.26c-1.64,1.65-3.56,3-5.67,3.98-12.89,6.04-26.29,9.1-39.82,9.1ZM144.19,138.08h0s0,0,0,0ZM98.08,90.84c.32,0,1.11,0,2.34.02,1.25.01,3.03.03,5.3.04-.19-.99-.38-1.73-.55-2.25-.26-.02-.57-.03-.93-.03-2.72,0-4.73.67-6.44,2.22.09,0,.19,0,.28,0Z"/>
    </g>
    <g>
      <path class="st0" d="M139.11,130.91l2.23-.26c6.82-.79,10.23-3.67,11.93-11.14l12.59-54.8c1.57-6.95-.92-10.36-7.74-11.14l-2.23-.26,1.7-7.21c.66,0,9.57.13,21.11.13h6.69c7.08,0,12.59-.13,20.71-.13,15.21,0,27.4,6.82,27.4,21.37s-11.93,24.52-28.19,27.66l17.44,25.96c3.93,5.9,6.03,8.52,10.1,9.57l1.05.26-1.7,7.21c-.39,0-8.26-.13-18.49-.13h-7.34l-21.37-41.04h-5.38l-5.11,22.55c-1.57,6.95.92,10.36,7.74,11.14l2.23.26-1.7,7.21c-.66,0-9.57-.13-22.29-.13-13.63,0-22.42.13-23.07.13l1.7-7.21ZM187.1,88.96c12.98,0,23.6-7.34,23.6-19.93,0-8.52-4.98-14.68-16.78-14.68h-4.46l-8,34.61h5.64Z"/>
      <path class="st0" d="M232.2,158.12c-.09,0-.44,0-1.04-.01-2.23-.03-9.03-.12-17.45-.12h-7.34c-4.28,0-8.36-1.37-11.71-3.79-3.35,2.48-7.48,3.92-11.89,3.92-.14,0-.62,0-1.41-.01-2.91-.03-10.63-.12-20.88-.12-11.07,0-18.81.09-21.73.12-.75,0-1.2.01-1.35.01-6.11,0-11.89-2.8-15.69-7.59-3.79-4.79-5.19-11.06-3.78-17.01l1.7-7.21c1.76-7.46,7.61-13.19,14.96-14.88l9.62-41.88c-1.81-1.3-3.41-2.91-4.71-4.77-3.27-4.67-4.39-10.52-3.08-16.07l1.7-7.21c2.13-9.03,10.19-15.4,19.46-15.4.15,0,.66,0,1.48.01,2.85.03,10.42.12,19.63.12h6.69c3.35,0,6.33-.03,9.42-.06,3.44-.03,7.01-.07,11.29-.07,27.91,0,47.4,17.01,47.4,41.37,0,14.65-6.76,27.38-18.39,36.16l4.24,6.31c.65.97,1.15,1.7,1.53,2.24,9.34,3.47,14.82,13.43,12.48,23.34l-1.7,7.21c-2.13,9.02-10.19,15.4-19.46,15.4ZM133.6,115.68h0Z"/>
    </g>
    <g>
      <path class="st0" d="M229.57,104.06l-1.57-.39,1.7-7.21c1.18,0,10.1.13,20.98.13,12.85,0,20.58-.13,21.63-.13l-1.7,7.21-2.75.26c-5.77.52-8,2.62-8,7.6,0,1.7.26,4.85.66,8.78l3.8,38.54,33.56-61.36h10.49l6.03,61.62,21.37-38.94c2.49-4.46,4.59-7.87,4.59-11.41,0-2.36-1.05-4.59-5.38-4.85l-3.8-.26,1.7-7.21c.92,0,8,.13,18.09.13s14.16-.13,15.08-.13l-1.7,7.21-1.7.26c-6.29.92-9.18,3.41-14.81,13.37l-40.77,72.37h-10.49l-6.42-59.65-32.64,59.65h-10.49l-8.13-71.32c-1.05-9.57-3.15-12.72-9.31-14.29Z"/>
      <path class="st0" d="M307.06,209.67h-10.49c-9.08,0-16.86-6.08-19.25-14.56l-2.28,4.16c-3.51,6.41-10.24,10.4-17.54,10.4h-10.49c-10.17,0-18.72-7.63-19.87-17.74l-8.02-70.34c-8.17-4.04-12.77-13.3-10.59-22.53l1.7-7.21c2.13-9.03,10.19-15.4,19.46-15.4.32,0,1.16,0,2.42.02,3.4.04,10.47.11,18.55.11,9.88,0,16.78-.08,19.73-.11,1-.01,1.64-.02,1.9-.02,4.99,0,9.77,1.87,13.41,5.16,3.43-2.62,7.68-4.12,12.15-4.12h10.49c4.3,0,8.3,1.36,11.58,3.7,3.52-2.98,8.06-4.74,12.93-4.74.25,0,.88,0,1.85.02,2.8.04,8.62.11,16.24.11s11.5-.07,13.49-.11c.79-.01,1.31-.02,1.59-.02,6.11,0,11.89,2.8,15.68,7.59,3.79,4.79,5.19,11.06,3.78,17.01l-1.7,7.21c-1.87,7.9-8.33,13.89-16.34,15.16-.52.8-1.25,1.98-2.23,3.73l-40.75,72.34c-3.54,6.29-10.2,10.18-17.42,10.18ZM224.67,123.44s.01,0,.02,0h-.02Z"/>
    </g>
    <g>
      <path class="st0" d="M391.23,69.15h-.39l-13.9,60.96c-1.83,8.26.66,11.41,7.47,12.19l2.23.26-1.7,7.21c-.66,0-9.44-.13-16.78-.13-8.26,0-16.13.13-16.78.13l1.7-7.21,2.1-.26c7.21-.92,10.36-3.54,12.32-12.19l12.32-53.75c1.57-6.95-.92-10.23-7.47-11.14l-1.84-.26,1.7-7.21c.66,0,8.52.13,17.83.13h21.5l4.85,63.98,33.96-63.98h18.35c12.32,0,21.11-.13,21.76-.13l-1.7,7.21-2.23.26c-6.82.79-10.23,3.67-11.93,11.14l-12.59,54.8c-1.57,6.95.92,10.36,7.74,11.14l2.23.26-1.71,7.21c-.66,0-9.57-.13-22.29-.13-13.63,0-22.42.13-23.07.13l1.7-7.21,2.23-.26c6.82-.79,10.23-3.67,11.93-11.14l14.29-62.01h-.39l-42.74,79.84h-13.9l-6.82-79.84Z"/>
      <path class="st0" d="M470.28,169.78c-.14,0-.62,0-1.41-.01-2.91-.03-10.63-.12-20.88-.12-11.07,0-18.81.09-21.73.12-.75,0-1.2.01-1.35.01-2.65,0-5.24-.53-7.63-1.51-1.72.48-3.51.73-5.35.73h-13.9c-1.88,0-3.7-.26-5.43-.75-2.38.99-4.98,1.53-7.68,1.53-.17,0-.84,0-1.86-.02-3.05-.04-9.38-.11-14.92-.11-6.32,0-12.48.08-15.12.11-.91.01-1.49.02-1.66.02-6.11,0-11.89-2.8-15.69-7.59-3.79-4.79-5.19-11.06-3.78-17.01l1.7-7.21c1.76-7.46,7.62-13.2,14.98-14.89l9.7-42.29c-1.65-1.27-3.1-2.81-4.3-4.56-3.17-4.64-4.23-10.4-2.94-15.87l1.7-7.21c2.13-9.03,10.19-15.4,19.46-15.4.16,0,.71,0,1.56.02,2.7.03,9.04.11,16.27.11h21.5c9.02,0,16.72,5.99,19.18,14.32l1.96-3.69c3.47-6.54,10.27-10.62,17.67-10.62h18.35c9.9,0,17.49-.09,20.34-.12.79,0,1.27-.01,1.42-.01,6.11,0,11.89,2.8,15.68,7.59,3.79,4.79,5.19,11.06,3.78,17.01l-1.7,7.21c-1.76,7.46-7.61,13.19-14.96,14.89l-9.62,41.88c1.81,1.3,3.41,2.91,4.72,4.78,3.27,4.67,4.39,10.52,3.08,16.07l-1.71,7.21c-2.13,9.02-10.19,15.4-19.46,15.4ZM353.28,122.37s0,0,0,0t0,0Z"/>
    </g>
  </g>
  <g>
    <g>
      <path class="st1" d="M44.8,113.86c0-26.48,20.71-54.15,55.59-54.15,9.18,0,16.78,1.83,23.07,5.38h.39l7.87-2.75h3.93c-1.31,11.67-2.62,23.86-3.67,35h-7.47c-.66-20.98-8-28.71-22.16-28.71-21.5,0-33.3,19.27-33.3,45.89,0,21.5,8.52,32.78,24.12,32.78,4.59,0,8.65-1.18,12.59-3.28l3.15-13.37c1.97-8.26.26-11.41-6.56-12.06l-7.87-.52,1.7-7.21c1.31,0,11.54.13,27.53.13,10.09,0,17.04-.13,18.22-.13l-1.7,7.21-1.83.39c-6.42,1.44-8.92,3.93-10.75,11.67l-4.33,18.62-.26.26c-10.36,4.85-20.85,7.21-31.33,7.21-28.71,0-46.94-16.78-46.94-42.35Z"/>
      <path class="st1" d="M91.74,167.21c-34.65,0-57.94-21.44-57.94-53.35S58.71,48.71,100.39,48.71c8.91,0,16.94,1.53,23.95,4.55l3.75-1.31c1.17-.41,2.4-.62,3.63-.62h3.93c3.13,0,6.11,1.33,8.2,3.67,2.09,2.33,3.08,5.45,2.73,8.56-1.55,13.82-2.75,25.2-3.65,34.81-.05.51-.13,1.01-.25,1.5,3.08.21,5.95,1.71,7.88,4.15,2.09,2.64,2.85,6.08,2.08,9.36l-1.7,7.21c-.98,4.13-4.25,7.33-8.4,8.22l-1.78.38c-.74.17-1.2.31-1.47.41-.19.41-.53,1.3-.94,3.06l-4.31,18.57c-.46,2-1.48,3.83-2.93,5.28l-.26.26c-.9.91-1.96,1.65-3.12,2.19-11.69,5.47-23.8,8.25-36,8.25ZM102.36,79.63c-20.69,0-22.3,26.7-22.3,34.89,0,21.78,9.2,21.78,13.12,21.78,1.1,0,2.14-.11,3.19-.35l1.56-6.63-4.17-.28c-3.23-.21-6.2-1.84-8.12-4.44-1.92-2.6-2.6-5.92-1.86-9.06l1.7-7.21c1.17-4.96,5.6-8.47,10.71-8.47.3,0,1.07,0,2.26.02,2.74.02,8.07.07,15.37.1-.18-.73-.28-1.49-.31-2.27-.56-18.05-5.71-18.05-11.16-18.05ZM60.32,94.42c-2.86,5.61-4.52,12.13-4.52,19.44,0,6.2,1.34,11.61,3.88,16.11-1.07-4.65-1.63-9.82-1.63-15.45,0-7.19.77-13.94,2.27-20.1Z"/>
    </g>
    <g>
      <path class="st1" d="M137.23,130.91l2.23-.26c6.82-.79,10.23-3.67,11.93-11.14l12.59-54.8c1.57-6.95-.92-10.36-7.74-11.14l-2.23-.26,1.7-7.21c.66,0,9.57.13,21.11.13h6.69c7.08,0,12.59-.13,20.71-.13,15.21,0,27.4,6.82,27.4,21.37s-11.93,24.52-28.19,27.66l17.44,25.96c3.93,5.9,6.03,8.52,10.1,9.57l1.05.26-1.7,7.21c-.39,0-8.26-.13-18.49-.13h-7.34l-21.37-41.04h-5.38l-5.11,22.55c-1.57,6.95.92,10.36,7.74,11.14l2.23.26-1.7,7.21c-.66,0-9.57-.13-22.29-.13-13.63,0-22.42.13-23.07.13l1.7-7.21ZM185.22,88.96c12.98,0,23.6-7.34,23.6-19.93,0-8.52-4.98-14.68-16.78-14.68h-4.46l-8,34.61h5.64Z"/>
      <path class="st1" d="M230.32,149.12c-.08,0-.39,0-.92-.01-2.25-.03-9.09-.12-17.57-.12h-7.34c-4.1,0-7.86-2.28-9.76-5.92l-2.55-4.9-.59,2.48c-1.17,4.96-5.6,8.47-10.71,8.47-.13,0-.58,0-1.31-.01-2.92-.03-10.68-.12-20.98-.12-11.12,0-18.9.09-21.83.12-.69,0-1.11.01-1.25.01-3.36,0-6.54-1.54-8.63-4.17-2.09-2.64-2.85-6.08-2.08-9.36l1.7-7.21c1.06-4.5,4.83-7.85,9.42-8.39l2.23-.26c.94-.11,1.48-.25,1.74-.33.15-.31.45-1,.75-2.33l12.13-52.83h-.07c-3.12-.37-5.93-2.05-7.73-4.62-1.8-2.57-2.42-5.79-1.69-8.84l1.7-7.21c1.17-4.96,5.6-8.47,10.71-8.47.14,0,.61,0,1.38.01,2.86.03,10.47.12,19.73.12h6.69c3.38,0,6.39-.03,9.52-.06,3.42-.03,6.95-.07,11.2-.07,22.97,0,38.4,13.01,38.4,32.37,0,14.35-8.3,26.47-22.07,33.42l9.45,14.06c.73,1.1,2.84,4.26,3.74,5.06l.94.24c5.84,1.46,9.42,7.34,8.03,13.2l-1.7,7.21c-1.17,4.96-5.6,8.47-10.71,8.47ZM160.58,126.99c.32,0,.63,0,.95,0-.12-.62-.21-1.26-.27-1.91-.21.66-.44,1.29-.68,1.91ZM211.16,126.99h.43l-1.93-2.88,1.5,2.88ZM196.21,65.84l-2.32,10.06c2.2-1.3,3.93-3.42,3.93-6.87,0-1.45,0-2.57-1.61-3.18ZM219.03,62.12c.52,2.16.78,4.46.78,6.91,0,1.11-.06,2.2-.16,3.27.67-1.63.98-3.28.98-4.84,0-1.76-.4-3.66-1.6-5.33ZM153.43,61.07h0s0,0,0,0ZM153.43,61.07h0ZM175.08,57.21c.09.47.16.94.22,1.42l.33-1.42c-.18,0-.36,0-.54,0Z"/>
    </g>
    <g>
      <path class="st1" d="M227.7,104.06l-1.57-.39,1.7-7.21c1.18,0,10.1.13,20.98.13,12.85,0,20.58-.13,21.63-.13l-1.7,7.21-2.75.26c-5.77.52-8,2.62-8,7.6,0,1.7.26,4.85.66,8.78l3.8,38.54,33.56-61.36h10.49l6.03,61.62,21.37-38.94c2.49-4.46,4.59-7.87,4.59-11.41,0-2.36-1.05-4.59-5.38-4.85l-3.8-.26,1.7-7.21c.92,0,8,.13,18.09.13s14.16-.13,15.08-.13l-1.7,7.21-1.7.26c-6.29.92-9.18,3.41-14.81,13.37l-40.77,72.37h-10.49l-6.42-59.65-32.64,59.65h-10.49l-8.13-71.32c-1.05-9.57-3.15-12.72-9.31-14.29Z"/>
      <path class="st1" d="M305.18,200.67h-10.49c-5.62,0-10.33-4.24-10.94-9.82l-2.67-24.79-15.81,28.9c-1.93,3.53-5.63,5.72-9.65,5.72h-10.49c-5.59,0-10.3-4.2-10.93-9.75l-8.13-71.32c-.29-2.67-.61-4.09-.82-4.8-.08-.02-.16-.04-.25-.07l-1.54-.38c-5.84-1.46-9.43-7.34-8.04-13.2l1.7-7.21c1.17-4.96,5.6-8.47,10.71-8.47.31,0,1.11,0,2.33.02,3.41.04,10.52.11,18.65.11,9.93,0,16.87-.08,19.83-.11.94-.01,1.55-.02,1.8-.02,3.36,0,6.54,1.54,8.63,4.17,2.09,2.64,2.85,6.08,2.08,9.35l-1.15,4.87,6.36-11.63c1.93-3.53,5.63-5.72,9.65-5.72h10.49c5.66,0,10.4,4.3,10.95,9.93l2.56,26.2,4.89-8.89c-1.75-.77-3.29-1.98-4.45-3.55-1.92-2.6-2.59-5.91-1.85-9.06l1.7-7.21c1.17-4.96,5.6-8.47,10.71-8.47.23,0,.82,0,1.73.02,2.82.04,8.67.11,16.36.11s11.63-.07,13.65-.11c.71-.01,1.18-.02,1.43-.02,3.36,0,6.54,1.54,8.63,4.17,2.09,2.64,2.85,6.08,2.08,9.35l-1.7,7.21c-1.03,4.36-4.61,7.66-9.04,8.34l-1.7.26c-1.9.28-2.65.39-6.91,7.92l-40.76,72.35c-1.95,3.46-5.61,5.6-9.58,5.6ZM303.07,164.75l.56,5.25,1.52-2.7c-.82-.74-1.52-1.59-2.09-2.54ZM253.41,165.14l.53,4.68,1.4-2.56c-.73-.62-1.38-1.33-1.93-2.12ZM295.35,121.6c1.16.98,2.12,2.2,2.79,3.57l-.72-7.36-2.07,3.79ZM269.16,114.67c.09,1.13.23,2.61.42,4.55l.31,3.1,5.35-9.79c-1.57,1.15-3.44,1.89-5.47,2.08l-.61.06ZM246.03,107.58c.38,1.14.69,2.31.96,3.51.02-.99.11-2.19.34-3.5-.44,0-.87,0-1.3,0Z"/>
    </g>
    <g>
      <path class="st1" d="M389.35,69.15h-.39l-13.9,60.96c-1.83,8.26.66,11.41,7.47,12.19l2.23.26-1.7,7.21c-.66,0-9.44-.13-16.78-.13-8.26,0-16.13.13-16.78.13l1.7-7.21,2.1-.26c7.21-.92,10.36-3.54,12.32-12.19l12.32-53.75c1.57-6.95-.92-10.23-7.47-11.14l-1.84-.26,1.7-7.21c.66,0,8.52.13,17.83.13h21.5l4.85,63.98,33.96-63.98h18.35c12.32,0,21.11-.13,21.76-.13l-1.7,7.21-2.23.26c-6.82.79-10.23,3.67-11.93,11.14l-12.59,54.8c-1.57,6.95.92,10.36,7.74,11.14l2.23.26-1.71,7.21c-.66,0-9.57-.13-22.29-.13-13.63,0-22.42.13-23.07.13l1.7-7.21,2.23-.26c6.82-.79,10.23-3.67,11.93-11.14l14.29-62.01h-.39l-42.74,79.84h-13.9l-6.82-79.84Z"/>
      <path class="st1" d="M468.4,160.78c-.13,0-.58,0-1.31-.01-2.92-.03-10.68-.12-20.98-.12-11.12,0-18.9.09-21.83.12-.69,0-1.11.01-1.25.01-2.59,0-5.07-.91-7.03-2.54-1.74,1.12-3.8,1.75-5.95,1.75h-13.9c-2.22,0-4.29-.66-6.03-1.8-1.93,1.62-4.42,2.58-7.08,2.58-.16,0-.79,0-1.76-.02-3.06-.04-9.44-.11-15.02-.11-6.37,0-12.58.08-15.23.11-.85.01-1.39.02-1.55.02-3.36,0-6.54-1.54-8.63-4.17-2.09-2.64-2.85-6.08-2.08-9.36l1.7-7.21c1.06-4.47,4.78-7.81,9.34-8.38l2.1-.26c1.01-.13,1.6-.27,1.92-.36.21-.42.6-1.39,1.05-3.35l11.89-51.88c-2.94-.5-5.55-2.18-7.24-4.65-1.74-2.55-2.33-5.72-1.62-8.73l1.7-7.21c1.17-4.96,5.6-8.47,10.71-8.47.15,0,.66,0,1.45.02,2.72.03,9.09.12,16.38.12h21.5c5.75,0,10.53,4.43,10.97,10.17l1.98,26.09,16.14-30.42c1.91-3.6,5.65-5.84,9.72-5.84h18.35c9.95,0,17.58-.09,20.45-.12.73,0,1.18-.01,1.32-.01,3.36,0,6.54,1.54,8.63,4.17,2.09,2.64,2.85,6.08,2.08,9.35l-1.7,7.21c-1.06,4.5-4.83,7.86-9.42,8.4l-2.23.26c-.94.11-1.47.25-1.74.33-.15.31-.45,1-.75,2.33l-12.13,52.83h.07c3.12.38,5.93,2.06,7.73,4.63,1.8,2.57,2.41,5.79,1.69,8.84l-1.71,7.21c-1.17,4.96-5.6,8.47-10.7,8.47ZM448.1,138.65c.32,0,.63,0,.95,0-.12-.62-.21-1.26-.27-1.91-.21.66-.44,1.29-.68,1.91ZM405.42,128.03l.47,5.47,1.67-3.12c-.82-.67-1.54-1.46-2.14-2.34Z"/>
    </g>
  </g>
  <g>
    <path class="st0" d="M45.05,114.12c0-26.48,20.71-54.15,55.59-54.15,9.18,0,16.78,1.84,23.07,5.38h.39l7.87-2.75h3.93c-1.31,11.67-2.62,23.86-3.67,35h-7.47c-.66-20.98-8-28.71-22.16-28.71-21.5,0-33.3,19.27-33.3,45.89,0,21.5,8.52,32.78,24.12,32.78,4.59,0,8.65-1.18,12.59-3.28l3.15-13.37c1.97-8.26.26-11.41-6.56-12.06l-7.87-.52,1.7-7.21c1.31,0,11.54.13,27.53.13,10.09,0,17.04-.13,18.22-.13l-1.7,7.21-1.83.39c-6.42,1.44-8.92,3.93-10.75,11.67l-4.33,18.62-.26.26c-10.36,4.85-20.85,7.21-31.33,7.21-28.71,0-46.94-16.78-46.94-42.35Z"/>
    <path class="st0" d="M137.48,131.17l2.23-.26c6.82-.79,10.23-3.67,11.93-11.14l12.59-54.8c1.57-6.95-.92-10.36-7.74-11.14l-2.23-.26,1.7-7.21c.66,0,9.57.13,21.11.13h6.69c7.08,0,12.59-.13,20.71-.13,15.21,0,27.4,6.82,27.4,21.37s-11.93,24.52-28.19,27.66l17.44,25.96c3.93,5.9,6.03,8.52,10.1,9.57l1.05.26-1.7,7.21c-.39,0-8.26-.13-18.49-.13h-7.34l-21.37-41.04h-5.38l-5.11,22.55c-1.57,6.95.92,10.36,7.74,11.14l2.23.26-1.7,7.21c-.66,0-9.57-.13-22.29-.13-13.63,0-22.42.13-23.07.13l1.7-7.21ZM185.46,89.22c12.98,0,23.6-7.34,23.6-19.93,0-8.52-4.98-14.68-16.78-14.68h-4.46l-8,34.61h5.64Z"/>
    <path class="st0" d="M227.94,104.32l-1.57-.39,1.7-7.21c1.18,0,10.1.13,20.98.13,12.85,0,20.58-.13,21.63-.13l-1.7,7.21-2.75.26c-5.77.52-8,2.62-8,7.6,0,1.7.26,4.85.66,8.78l3.8,38.54,33.56-61.36h10.49l6.03,61.62,21.37-38.94c2.49-4.46,4.59-7.87,4.59-11.41,0-2.36-1.05-4.59-5.38-4.85l-3.8-.26,1.7-7.21c.92,0,8,.13,18.09.13s14.16-.13,15.08-.13l-1.7,7.21-1.7.26c-6.29.92-9.18,3.41-14.81,13.37l-40.77,72.37h-10.49l-6.42-59.65-32.64,59.65h-10.49l-8.13-71.32c-1.05-9.57-3.15-12.72-9.31-14.29Z"/>
    <path class="st0" d="M389.59,69.42h-.39l-13.9,60.96c-1.83,8.26.66,11.41,7.47,12.19l2.23.26-1.7,7.21c-.66,0-9.44-.13-16.78-.13-8.26,0-16.13.13-16.78.13l1.7-7.21,2.1-.26c7.21-.92,10.36-3.54,12.32-12.19l12.32-53.75c1.57-6.95-.92-10.23-7.47-11.14l-1.84-.26,1.7-7.21c.66,0,8.52.13,17.83.13h21.5l4.85,63.98,33.96-63.98h18.35c12.32,0,21.11-.13,21.76-.13l-1.7,7.21-2.23.26c-6.82.79-10.23,3.67-11.93,11.14l-12.59,54.8c-1.57,6.95.92,10.36,7.74,11.14l2.23.26-1.71,7.21c-.66,0-9.57-.13-22.29-.13-13.63,0-22.42.13-23.07.13l1.7-7.21,2.23-.26c6.82-.79,10.23-3.67,11.93-11.14l14.29-62.01h-.39l-42.74,79.84h-13.9l-6.82-79.84Z"/>
  </g>
</svg>